<svg width="109" height="160" viewBox="0 0 109 160" fill="none" xmlns="http://www.w3.org/2000/svg">
<path d="M1.9104 160V134.109L54.3624 79.648C64.9272 68.7856 70.2096 59.56 70.2096 51.9712C70.2096 47.0608 68.7216 43.1176 65.7456 40.1416C62.7696 37.0168 58.6776 35.4544 53.4696 35.4544C43.0536 35.4544 35.3904 41.1088 30.48 52.4176L0.348 34.7848C5.1096 23.6248 12.252 15.1432 21.7752 9.34C31.2984 3.53679 41.7144 0.635192 53.0232 0.635192C67.6056 0.635192 80.0304 5.17359 90.2976 14.2504C100.714 23.1784 105.922 35.2312 105.922 50.4088C105.922 66.9256 97.812 83.2936 81.5928 99.5128L55.7016 125.627H108.154V160H1.9104Z" fill="#FFD5AD"/>
</svg>
