<svg width="113" height="161" viewBox="0 0 113 161" fill="none" xmlns="http://www.w3.org/2000/svg">
<path d="M78.8072 64.1488C88.7768 67.5712 96.812 73.1512 102.913 80.8888C109.014 88.4776 112.064 97.48 112.064 107.896C112.064 124.264 106.558 137.061 95.5472 146.286C84.536 155.512 71.0696 160.125 55.148 160.125C42.7976 160.125 31.712 157.298 21.8912 151.643C12.2192 145.989 5.0768 137.656 0.464 126.645L31.2656 108.789C35.1344 119.8 43.0952 125.306 55.148 125.306C62.1416 125.306 67.424 123.669 70.9952 120.395C74.5664 117.122 76.352 112.955 76.352 107.896C76.352 102.837 74.5664 98.6704 70.9952 95.3968C67.424 92.1232 62.1416 90.4864 55.148 90.4864H47.7824L34.1672 70.1752L62.5136 34.24H5.3744V0.759991H105.814V29.776L78.8072 64.1488Z" fill="#FFD5AD"/>
</svg>
